# xmcd CD database file
#
# Track frame offsets:
#	150
#	17435
#	35730
#	53020
#
# Disc length: 948 seconds
#
# Revision: 0
# Processed by: cddbd v1.5.1PL2 Copyright (c) Steve Scherf et al.
# Submitted via: CDex 1.51
#
DISCID=2703b204
DTITLE=BoA - 抱きしめる
DYEAR=2005
DGENRE=Pop
TTITLE0=抱きしめる
TTITLE1=Before You Side Goodbye To Me
TTITLE2=抱きしめる (TV Mix)
TTITLE3=Before You Side Goodbye To Me (TV Mix)
EXTD=YEAR: 2005
EXTT0=
EXTT1=
EXTT2=
EXTT3=
PLAYORDER=
